<svg viewBox="0 0 24 24" fill="#eeeeee" xmlns="http://www.w3.org/2000/svg">
    <path d="M7,10.125C7,12,5.75,13,4.5,13C2.875,13,2,11.795,2,10.308c0-1.154,0.769-1.385,0.769-2.154 c0-0.419,0.769-0.769,0.769-1.538c0.092-0.032,1.33-1.307,1.538-1.538C5.313,4.815,5.521,4.73,5.846,4.308 C5.808,4.294,5.793,4.25,5.793,4.25C6.229,3.806,7.542,3.299,7.78,3.177c0.456-0.233,0.99-0.528,1.514-0.718 C10.066,2.179,10.888,2,11.706,2c0.136,0,0.273,0.005,0.409,0.015c0.386,0.029,0.798,0.092,1.184,0.139 c0.232,0.028,0.931,0.357,1.084,0.357c0.006,0,0.011,0,0.015-0.001L14.37,2.368c0,0,0.668,0.202,0.758,0.227 c0.328,0.089,1.326,0.836,1.664,0.836c0.019,0,0.035-0.002,0.05-0.007c-0.118-0.089-0.237-0.178-0.355-0.267 c0.45,0.056,1.079,0.334,1.353,0.718c1.083,1.203,1.267,1.727,1.609,2.075l0.12-0.235c0.254,0,0.807,1.238,0.952,1.538 c0.114-0.163,0.135-0.316,0.135-0.316c0.1,0,0.202,0.435,0.326,0.69c0.188,0.386-0.648,0.883-0.52,1.297 c-0.012-0.007-0.019-0.011-0.023-0.011C20.382,8.912,21,9.74,21,10.462c0,0.769,0,0.769,0,2.308c0.09-0.269,0.898-0.5,1-0.769 c0.009,0.276-0.169,0.361-0.16,0.636c0,0,0,0,0,0c0.058,0,0.117-0.168,0.159-0.22c0.022,0.956-0.768,1.122-0.768,2.66 c-0.765,0.221-0.445,2.151-1.596,2.581c-0.955,1.242-1.447,2.803-3.019,2.803c-1.154,0-0.388,0.512-0.865,0.769 C15.358,21.441,12.7,22,12,22c-3.077,0-4.664-1.039-6.154-2.308c-0.727-0.619-0.859-0.859-1.538-1.539C3.538,17.385,3,15,3,15 s1,2,3,3c-0.875-1.125-1-2-1-2s3.108,3,5.5,3c1.595,0,1.082,0,1.879,0C14.622,19,17,17,17,16c0-1.449,1-2,1-4l-0.836-1.937 c-0.036-0.292-0.758-1.241-0.94-1.486c-0.636-0.853-0.396-1.255-1.452-1.764C14.165,6.52,13,6,12,6s-1.553,0.002-2,0.25 C7.75,7.5,7,8.653,7,10.125z"></path>
</svg>